<?xml version="1.0" standalone="no"?>
<!DOCTYPE svg PUBLIC "-//W3C//DTD SVG 20010904//EN"
 "http://www.w3.org/TR/2001/REC-SVG-20010904/DTD/svg10.dtd">
<svg version="1.0" xmlns="http://www.w3.org/2000/svg"
 width="260.000000pt" height="260.000000pt" viewBox="0 0 260.000000 260.000000"
 preserveAspectRatio="xMidYMid meet">
<metadata>
Created by potrace 1.14, written by Peter Selinger 2001-2017
</metadata>
<g transform="translate(0.000000,260.000000) scale(0.100000,-0.100000)"
fill="#000000" stroke="none">
<path d="M1238 2385 c-33 -40 -41 -45 -69 -45 -23 0 -46 -17 -114 -85 l-85
-85 0 -84 c0 -78 2 -85 25 -100 17 -12 25 -25 25 -47 0 -23 14 -43 66 -94 36
-36 70 -65 75 -65 6 0 9 -10 7 -22 -2 -19 -10 -24 -41 -26 -33 -3 -49 -14
-103 -68 -35 -36 -64 -70 -64 -75 0 -5 -7 -9 -15 -9 -9 0 -20 -11 -26 -24 -6
-13 -20 -27 -30 -29 -15 -4 -19 -14 -19 -46 0 -35 -4 -43 -25 -51 -27 -10 -28
-14 -25 -113 2 -64 0 -69 -29 -94 -30 -26 -30 -27 -24 -103 l6 -77 -33 -23
c-24 -17 -31 -28 -27 -47 3 -19 -9 -38 -63 -93 -67 -68 -69 -70 -118 -70 -45
0 -53 3 -72 30 l-21 30 -104 0 c-81 0 -107 -3 -117 -15 -33 -40 -41 -45 -68
-45 -22 0 -42 -13 -78 -50 -27 -27 -54 -50 -60 -50 -8 0 -12 -19 -12 -50 0
-38 4 -50 15 -50 9 0 60 -45 114 -100 83 -84 103 -100 129 -100 23 0 36 -7 48
-25 14 -22 23 -25 75 -25 51 0 61 -3 75 -25 14 -22 23 -25 74 -25 54 0 60 -3
80 -30 l21 -30 669 0 669 0 21 30 c20 27 26 30 80 30 51 0 60 3 74 25 15 22
24 25 76 25 52 0 61 3 76 25 13 19 25 25 54 25 30 0 39 5 48 25 6 14 18 25 25
25 8 0 19 11 25 25 6 14 18 25 27 25 8 0 15 4 15 9 0 16 78 91 94 91 12 0 16
11 16 50 0 32 -4 50 -12 50 -7 0 -33 22 -59 50 -37 39 -54 50 -78 50 -22 0
-36 8 -53 30 l-22 30 -107 0 -108 0 -21 -30 c-19 -26 -27 -30 -71 -30 -49 0
-52 2 -115 65 -47 49 -64 73 -64 93 0 18 -10 37 -29 53 -28 25 -29 29 -24 87
7 71 -2 112 -22 112 -26 0 -38 40 -32 109 5 68 -4 101 -27 101 -16 0 -26 22
-26 56 0 17 -31 55 -110 133 -96 96 -114 110 -147 113 -31 2 -39 7 -41 26 -2
12 1 22 7 22 5 0 39 29 75 65 52 51 66 71 66 94 0 22 8 35 25 47 23 15 25 22
25 100 l0 84 -85 85 c-67 66 -91 85 -113 85 -19 0 -38 10 -55 30 -23 26 -34
30 -77 30 -32 0 -54 -5 -62 -15z m90 -170 c10 -21 19 -25 51 -25 31 0 41 -4
46 -21 4 -11 18 -24 31 -29 20 -8 24 -16 24 -50 0 -34 -4 -42 -25 -50 -21 -8
-25 -16 -25 -50 0 -33 -4 -42 -25 -52 -14 -6 -25 -14 -25 -18 0 -3 -15 -23
-34 -43 -37 -41 -65 -47 -73 -17 -3 10 -13 22 -24 25 -10 3 -21 14 -24 24 -3
10 -17 23 -30 29 -21 10 -25 19 -25 52 0 34 -4 42 -25 50 -21 8 -25 16 -25 51
0 32 4 42 20 46 10 3 26 16 35 29 11 18 25 24 50 24 28 0 38 5 47 25 6 14 19
25 28 25 9 0 22 -11 28 -25z m-4 -701 c3 -9 6 -28 6 -44 0 -19 8 -33 25 -44
22 -15 25 -23 25 -80 0 -57 2 -64 25 -74 23 -11 25 -17 25 -77 0 -61 2 -66 25
-75 25 -9 25 -11 25 -125 0 -113 0 -116 -25 -127 -24 -11 -25 -15 -25 -96 l0
-84 -39 -39 c-35 -35 -44 -39 -91 -39 -47 0 -56 4 -91 39 l-39 39 0 84 c0 81
-1 85 -25 96 -25 11 -25 14 -25 127 0 114 0 116 25 125 23 9 25 14 25 75 0 60
2 66 25 77 27 12 29 18 25 90 -1 40 2 49 24 63 19 13 26 26 26 49 0 48 40 77
54 40z m-356 -567 c2 -165 3 -167 27 -183 27 -18 35 -70 13 -92 -26 -26 -98
-4 -98 29 0 5 -15 9 -34 9 -32 0 -66 20 -66 40 0 4 -9 10 -20 13 -27 7 -27 47
0 54 10 3 22 13 25 23 3 9 17 22 30 28 21 10 25 19 25 53 0 33 4 42 20 46 24
6 35 42 26 84 -7 37 9 71 32 67 15 -3 17 -23 20 -171z m717 153 c3 -10 3 -35
0 -54 -9 -44 0 -72 25 -79 15 -4 20 -14 20 -41 0 -19 6 -40 13 -46 6 -6 32
-29 57 -50 l44 -40 -44 -40 c-33 -30 -53 -40 -77 -40 -18 0 -33 -4 -33 -9 0
-33 -72 -55 -98 -29 -22 22 -14 74 13 92 25 16 25 17 25 180 0 89 3 166 7 169
13 14 42 6 48 -13z m-1223 -465 c6 -14 17 -25 23 -25 6 0 17 -11 23 -25 6 -14
19 -25 27 -25 8 0 21 11 27 25 11 24 15 25 99 25 83 0 89 -1 105 -25 12 -18
25 -25 50 -25 25 0 38 -7 50 -25 13 -19 25 -25 54 -25 30 0 40 -5 45 -21 4
-11 18 -24 32 -30 16 -6 23 -15 21 -27 -3 -14 -17 -17 -95 -20 -89 -3 -93 -2
-109 23 -16 25 -18 25 -154 25 -136 0 -138 0 -154 25 -14 22 -24 25 -75 25
-52 0 -61 3 -75 25 -12 18 -25 25 -50 25 -25 0 -38 7 -50 25 -9 14 -23 25 -30
25 -16 0 -25 19 -18 38 3 9 37 12 123 12 118 0 120 0 131 -25z m1932 16 c9
-14 -4 -41 -19 -41 -7 0 -20 -11 -29 -25 -12 -19 -25 -25 -51 -25 -26 0 -39
-6 -51 -25 -14 -22 -23 -25 -75 -25 -51 0 -61 -3 -75 -25 -16 -25 -18 -25
-154 -25 -136 0 -138 0 -154 -25 -16 -25 -20 -26 -109 -23 -80 3 -92 5 -95 21
-2 12 4 20 17 24 11 3 27 16 36 29 11 17 25 24 49 24 25 0 38 7 50 25 12 19
25 25 51 25 26 0 39 6 51 25 15 24 22 25 104 25 83 0 87 -1 98 -25 6 -14 19
-25 27 -25 8 0 21 11 27 25 6 14 17 25 25 25 7 0 19 11 25 25 11 25 13 25 129
25 65 0 120 -4 123 -9z"/>
</g>
</svg>
